<svg xmlns="http://www.w3.org/2000/svg" xml:space="preserve" viewBox="0 0 72 72" id="Target">
  <path d="M30.918 19.207a16.877 16.877 0 0 0-7.032 3.906 1 1 0 1 0 1.361 1.467 14.873 14.873 0 0 1 6.195-3.443 1 1 0 1 0-.524-1.93zM21.86 27.073a.998.998 0 0 0-1.354.405 16.75 16.75 0 0 0-1.036 2.333.999.999 0 1 0 1.884.67c.25-.704.557-1.396.912-2.054a1 1 0 0 0-.406-1.354z" fill="#ffffff" class="color000000 svgShape"></path>
  <path d="M66.5 34.5h-5.69c-.471-12.217-9.923-22.167-21.929-23.413V5.5a2 2 0 0 0-4 0v5.501c-12.52.736-22.539 10.913-23.024 23.499H5.5a2 2 0 0 0 0 4h6.529c1.446 11.604 11.034 20.713 22.852 21.407V66.5a2 2 0 0 0 4 0v-6.679C50.193 58.647 59.236 49.743 60.638 38.5H66.5a2 2 0 0 0 0-4zM38.881 55.777V52.5a2 2 0 0 0-4 0v3.38c-9.606-.679-17.387-7.991-18.796-17.38H19.5a2 2 0 0 0 0-4h-3.619c.48-10.375 8.689-18.746 19-19.473V19.5a2 2 0 0 0 4 0v-4.371c9.793 1.222 17.441 9.366 17.905 19.371H52.5a2 2 0 0 0 0 4h4.082c-1.354 9.029-8.602 16.142-17.701 17.277z" fill="#ffffff" class="color000000 svgShape"></path>
</svg>